<svg xmlns="http://www.w3.org/2000/svg" viewBox="0 0 2048 2732"><defs><style>.cls-1{fill:#413015;}.cls-2,.cls-5,.cls-6{fill:#231f20;}.cls-3{fill:#19441f;}.cls-4{fill:#848484;}.cls-5{font-size:44px;}.cls-5,.cls-6{font-family:AcademyEngravedLetPlain, Academy Engraved LET;}.cls-6{font-size:32px;}</style></defs><g id="dirt"><path class="cls-1" d="M607.66,1260.5c-15.87-2.77-33.43-5.24-47.07,3.33S544,1297,559,1302.88c-14-4.9-31.2,3.71-35.66,17.85-24.81,9.31-54.56,3.8-74.4-13.76-5.57-4.92-12.67-11.17-19.35-7.92-13.17,6.43,6,27.1.41,40.64-2.94,7.12-11.86,9.56-16.79,15.48-4.09,4.91-5,11.61-6.17,17.89A144.27,144.27,0,0,1,374,1441l33.14,4.47a236.53,236.53,0,0,1-121.81,51.33c-5.62,15.5,17.72,23.81,34.18,24.8a274.74,274.74,0,0,1,107.15,29c4.71.66,6.46,8.09,2.53,10.78l30.85,3.26-.92,23.67a185.58,185.58,0,0,0,69.14,3c-3.33-16.55,13.85-31.18,30.66-32.79s33,5.38,49.25,10.11l2.8,15.7a152.52,152.52,0,0,0,66.72-12.4L649,1621.7c17.54,15.69,46,2.21,61.05-15.87s26.23-41.46,47.86-50.74c22.18-9.53,49.42-1.18,70.81-12.38,17-8.91,27-28.72,45.14-35.2a19,19,0,0,1,9.78-1.19c5,.94,8.91,4.65,12.72,8,32,28.17,77.2,40.56,119,32.6,25.45-4.84,54.84-15.8,74.8.71-.86-11.81,9.11-22.22,20.36-25.92s23.45-2.27,35.2-.8l97.8,12.2c21.39,2.67,46.48,8,55,27.79,14.76-6.34,1.63-30.49,9.39-44.56,8-14.54,29.71-8.25,46.23-10,17.8-1.91,32-15.14,47.88-23.35s39.57-9.14,47.75,6.79c2.55,5,3.22,11.07,7.16,15,6,6.08,16.66,3.86,23.51-1.3s11.74-12.6,18.73-17.56c9.77-6.92,22.72-8.36,32.16-15.72s11.14-26-.54-28.66c19.64,5.88,41.23,11.67,60.08,3.61s28.87-36.86,12.59-49.32c16.83-1.36,34.38-3,48.69-11.91s24-27.75,17-43.13c-5-11.17-17.73-23.49-9.8-32.84,3-3.56,8-4.56,12.42-6.06,21.57-7.31,35.1-32.81,29.05-54.77s-30.71-36.94-53-32.18q-12.48-27.48-24.94-55c-28.83,39.39-84.93,56.19-130.66,39.13-12.06-4.5-24.4-12.4-27.5-24.9-32.7-3.79-64.46,24.48-96.16,15.61-10.21-2.86-19-9.35-28.86-13.24-45.94-18.13-92.11,23-139.84,35.75-48,12.8-100.29-4-148.29,9-35.75,9.68-67.74,35.53-104.76,34.4-19-.57-36.86-8.31-55.33-12.65-35.11-8.24-71.78-4.09-107.66-.43q-90.71,9.24-181.79,13.9"/><path class="cls-2" d="M608.32,1258.09c-18-3.11-43.65-6.93-56.08,10.37-8,11.12-8.72,30.15,5.47,36.58l1.92-4.57a31.79,31.79,0,0,0-34,10.7c-3.56,4.54-3.24,7.52-9.13,9.13-24.71,6.74-49.15-1-68.21-17.16-5.79-4.9-14.05-10.59-21.48-5.36-5.09,3.59-4.93,9.61-3.61,15.12,1.93,8.07,8.48,19,3.81,27.09-2.55,4.43-7.82,6.71-11.69,9.77a24.12,24.12,0,0,0-7.73,10.17c-2.48,6.16-3,13-4.51,19.46a142.31,142.31,0,0,1-6.58,20.44,143.85,143.85,0,0,1-24.24,39.38c-1.07,1.24-.94,3.9,1.1,4.18l33.13,4.47-1.1-4.17a236.3,236.3,0,0,1-120,50.59,2.62,2.62,0,0,0-2.41,1.83c-7.53,24.59,31.82,27.31,46.72,28.76a270.67,270.67,0,0,1,51.59,10.22c8.51,2.56,16.91,5.51,25.13,8.9,3.38,1.39,27.42,9.66,21.07,15.56-1.74,1.61-.24,4.06,1.76,4.27l30.85,3.26-2.5-2.5-.92,23.67a2.54,2.54,0,0,0,1.83,2.42,195.39,195.39,0,0,0,70.47,3c1.44-.2,1.93-1.89,1.75-3.07-2.94-19,18.39-30.17,34.52-29.83,9.5.2,18.7,2.84,27.71,5.65,2.89.9,10,1.79,12.18,3.84,2.89,2.78,2.81,10.92,3.48,14.69a2.53,2.53,0,0,0,2.41,1.83,159.73,159.73,0,0,0,68-12.74l-3.42-3.42-28.69,49.81a2.54,2.54,0,0,0,.39,3c23.3,19.44,53.87-1.72,68.89-21.28,10.21-13.29,18.86-28.62,32.5-38.82,15.24-11.4,33.81-10.53,51.87-11.68,15.66-1,29.33-4.75,41.31-15.23,10.68-9.34,27.89-33.91,44.62-26.57,7,3.09,12.92,10.46,19.19,15a140.38,140.38,0,0,0,21.18,12.5,148,148,0,0,0,46.25,13.41c19.08,2.29,37.4,0,56-4.21,19.2-4.3,42.28-10.47,59.37,2.84,1.59,1.24,4.33.61,4.27-1.76-.55-23.81,27.93-26.85,45.46-25.11,20.73,2.06,41.41,5.11,62.09,7.69,19.3,2.41,39,3.83,58.1,7.79,15.27,3.17,31.07,9.12,38,24.16a2.55,2.55,0,0,0,3.42.9c21-10.48-5.33-45.29,20.14-52.83,11.67-3.46,24.49.09,36.42-1.71,13.13-2,24.26-9.65,35.25-16.55s22.19-12.84,35.46-12.25c6.17.28,12.58,2,17.06,6.47,4.85,4.84,5.26,11.82,8.78,17.41,5.59,8.88,16.94,8.73,25.41,4.2,5.88-3.15,10.26-8.38,14.84-13.09,6.15-6.34,12.61-10.06,20.78-13.26,10.94-4.28,22.7-8.42,26.47-20.7,2.65-8.61.55-18.83-8.94-21.61-3.09-.91-4.41,3.91-1.33,4.82,22.29,6.63,53.1,15,72.15-3.58,12.16-11.89,17.62-34.17,3-46.31l-1.77,4.27c21-1.72,45.4-3.92,60.13-21,5.68-6.6,9.75-14.84,10.33-23.63.63-9.59-4-17.07-8.76-25-2.87-4.73-7-10.55-5.26-16.27,2-6.58,10.91-7.23,16.39-9.67a47.56,47.56,0,0,0,19.61-16.68c9.87-14.41,12-33.68,3.44-49.2-10.12-18.25-31.76-28.21-52.14-24.38l2.82,1.15-24.93-55c-.86-1.9-3.33-1.33-4.32,0-17.5,23.42-44.35,38.6-73.1,43.14a110.26,110.26,0,0,1-43.27-1.63c-14.78-3.62-32.55-10.69-37.22-26.69a2.57,2.57,0,0,0-2.41-1.83c-25.44-2.42-47.64,12-72,16.29-16.25,2.89-28.64-2.1-42.9-9.43-10.65-5.48-21.76-8.92-33.81-9-24.7-.2-48,11.29-69.81,21.51-12.62,5.9-25.24,11.91-38.48,16.3-14.23,4.72-29,6.86-43.93,7.42-29.58,1.1-59.22-3.14-88.75-.17-27.78,2.81-51.47,14.75-76.64,25.8-12.81,5.63-26.19,10.75-40.18,12.33-15.83,1.79-31-2.07-46.09-6.51-14.26-4.2-28.39-7.87-43.23-9.35-15.7-1.57-31.51-1.25-47.23-.21-35.95,2.4-71.78,6.95-107.69,9.9q-55.92,4.61-112,7.47c-3.2.17-3.22,5.17,0,5,65.7-3.38,131.16-9,196.63-15.4,31.91-3.14,64.53-5.29,95.92,2.78,14.62,3.76,28.84,9.16,43.87,11.1a91.55,91.55,0,0,0,37.08-3.24c26.2-7.47,49.34-22.88,75.59-30.24,29.66-8.31,60.79-5,91.14-4.22,28.49.7,55.18-2.25,81.65-13.25,24.23-10.07,47.35-24,73.15-29.85,14.75-3.33,29.92-3,43.92,3.12,13.38,5.81,24.84,14,40,14.21,29.1.32,54.34-20.13,83.75-17.34l-2.41-1.84c4.43,15.19,18.87,23.32,33,28a113,113,0,0,0,49,4.49c31.88-3.94,61.44-20.3,80.72-46.09h-4.32q12.47,27.48,24.94,55a2.53,2.53,0,0,0,2.82,1.15c18.49-3.48,38.23,6.24,46.94,22.94,8.63,16.54,3.51,37.3-9.57,50-6.79,6.59-14.53,8.11-22.72,12-5.6,2.65-9.29,7.58-8.75,14,.65,7.56,6,14.16,9.74,20.48,5.41,9.25,6.26,18.82,1.49,28.58-11.34,23.22-39.33,26.19-62.2,28.06-1.93.15-3.58,2.76-1.76,4.26,13.78,11.42,6.31,32.87-6.31,42.11-18.18,13.31-44.54,5.2-63.94-.57l-1.33,4.82c5.76,1.69,7,7.47,6.06,12.8-1,6.16-4.54,10.59-9.8,13.8-11,6.7-23.72,8.3-33.46,17.32-8.49,7.87-27.56,30.23-37,10.72-4.3-8.93-6.14-16.72-16-21.09-20-8.9-40.16,3.44-56.65,13.79-11.5,7.22-22.67,12.8-36.51,12.87-9.77,0-20.34-1.56-29.77,1.72-8.92,3.11-13.4,10.76-14.16,19.88-.8,9.65,5.22,27.56-5.61,33l3.42.89c-7.19-15.5-23.26-22.48-39.1-26-21.85-4.9-44.75-6.32-67-9.09l-37.72-4.71c-12-1.5-24.39-3.84-36.54-2.62-16.23,1.63-33.11,12.45-32.7,30.45l4.27-1.77c-26.77-20.86-62.54-1.54-92.11.58-35.84,2.56-72.6-9.12-100-32.42-4.87-4.14-9.57-9.13-16.18-10.21-7.52-1.22-15.43,2.85-21.36,7-12.47,8.82-21.11,22.54-34.82,29.68-15.93,8.3-34.9,5.58-52.14,7.66a62,62,0,0,0-38.8,19.35c-12.5,13.06-20.57,29.9-33.72,42.33s-35.87,23.53-52,10l.39,3,28.69-49.81c1.36-2.36-1.26-4.34-3.42-3.42A154,154,0,0,1,611,1581.79l2.41,1.84-2.8-15.71a2.45,2.45,0,0,0-1.74-1.74c-18.91-5.64-40.42-15.27-60.18-7.81-14,5.28-25.22,18-22.81,33.56l1.74-3.07a188.2,188.2,0,0,1-67.81-3l1.84,2.41.92-23.67a2.56,2.56,0,0,0-2.5-2.5l-30.85-3.26,1.77,4.27a8.76,8.76,0,0,0,1.91-10.51c-2.51-5.17-10.48-7-15.26-9.14a279.5,279.5,0,0,0-49.76-17.15c-16.56-4-33.11-5.7-50-7.34-10.64-1-34.8-6.15-30.09-21.51l-2.42,1.84A242.42,242.42,0,0,0,409,1447.22c1.37-1.1.69-3.93-1.11-4.18l-33.13-4.47,1.1,4.17A149,149,0,0,0,407,1384.19c3.17-11.82,2.79-24.34,13.55-32.09,5.69-4.1,11.5-7.75,12.69-15.21,1.23-7.65-2.28-15.22-4.41-22.37-.91-3-2.7-7.92-.82-10.93,4.89-7.8,14.88,1.54,19.1,5.15a78.38,78.38,0,0,0,54.19,18.89,75.59,75.59,0,0,0,15.48-2.25c5.84-1.49,7.58-1.7,10-6.8,5.53-11.5,19.52-17,31.46-13.29,2.65.82,4.55-3.38,1.93-4.57-12.47-5.64-10.18-23.12-2.06-31.64,12-12.62,33.66-8.78,48.82-6.17,3.15.54,4.5-4.28,1.33-4.82Z"/></g><g id="bg-weeds"><path class="cls-3" d="M623.28,1418.34c-6.4-18.58-12.94-37.45-24.44-53.37s-28.89-28.76-48.49-30a227.18,227.18,0,0,1,98.76,10l-36.63-33c17.41-2.78,35.45-5.53,52.46-.88s32.75,18.84,33.26,36.47c6.4-10.18,3.68-25-5.91-32.3a102.73,102.73,0,0,1,56,40.88"/><path class="cls-2" d="M625.69,1417.67c-5.44-15.81-11-31.81-19.6-46.22-7.79-13-18.39-24.64-31.85-31.92a58.74,58.74,0,0,0-23.89-7.07v5a225.93,225.93,0,0,1,76.94,4q10.71,2.44,21.16,5.93c2.34.78,4.27-2.53,2.43-4.18l-36.64-33-1.1,4.18c15.12-2.41,30.86-4.95,46.1-2,11.67,2.22,23,8.11,30.15,17.88a31.42,31.42,0,0,1,6.31,17.34,2.52,2.52,0,0,0,4.66,1.26c7.14-11.57,3.85-27.52-6.81-35.72l-1.92,4.57a100.69,100.69,0,0,1,45.13,27.95,96.85,96.85,0,0,1,9.38,11.79c1.79,2.65,6.12.15,4.32-2.53a105.19,105.19,0,0,0-57.5-42,2.5,2.5,0,0,0-3,1.45,2.54,2.54,0,0,0,1,3.12c8.54,6.57,10.59,19.85,5,28.88l4.66,1.26c-.45-13-8.43-24.12-18.88-31.34-12.34-8.53-27.55-10.68-42.25-10a246.8,246.8,0,0,0-27.76,3.35c-1.85.29-2.41,3-1.1,4.17l36.63,33,2.44-4.17a230.28,230.28,0,0,0-77.52-11.66c-7.32.16-14.64.69-21.91,1.56a2.5,2.5,0,0,0,0,5c13.87.94,26.58,8,36.48,17.5,11.13,10.63,18.73,24.31,24.59,38.41,3.51,8.41,6.48,17,9.45,25.63a2.56,2.56,0,0,0,3.07,1.75,2.53,2.53,0,0,0,1.75-3.08Z"/><path class="cls-3" d="M649,1205.67l-89.89.19a116.47,116.47,0,0,1,84.76,36.92l-43.8-5.08c8.36.1,10,11.67,10.24,20s7.24,19.41,14.13,14.66"/><path class="cls-2" d="M649,1203.17l-69.92.14-20,0c-3.22,0-3.23,5,0,5a114.51,114.51,0,0,1,67.82,22.56,109,109,0,0,1,15.17,13.63l1.77-4.27-43.8-5.08v5a5,5,0,0,1,3.1,1.06,8.22,8.22,0,0,1,2.17,2.91,27.1,27.1,0,0,1,2.2,9c.35,3.6.22,7.18,1.33,10.67a20.91,20.91,0,0,0,5.83,9.57c3.18,2.72,7.35,3.58,11,1.17,2.67-1.76.17-6.09-2.52-4.31a3.27,3.27,0,0,1-3,.68,6.85,6.85,0,0,1-3.05-2.13,18.22,18.22,0,0,1-4.14-9,39.92,39.92,0,0,1-.32-4.66c-.11-1.75-.3-3.49-.56-5.22a24.89,24.89,0,0,0-3.09-9.39,10.74,10.74,0,0,0-9-5.36,2.5,2.5,0,1,0,0,5l43.8,5.08c2.29.27,3.1-2.83,1.77-4.27a119.13,119.13,0,0,0-65.13-35.68,117.27,117.27,0,0,0-21.4-2v5l69.91-.15,20,0c3.22,0,3.22-5,0-5Z"/><path class="cls-3" d="M645.46,1205.87l-.06-30.21a90,90,0,0,1,37.24,64.24"/><path class="cls-2" d="M648,1205.87l-.06-30.21-3.76,2.16A87.53,87.53,0,0,1,677,1223.9a83.92,83.92,0,0,1,3.16,16,2.57,2.57,0,0,0,2.5,2.5,2.51,2.51,0,0,0,2.5-2.5,93,93,0,0,0-25.26-55,90.07,90.07,0,0,0-13.22-11.36c-1.58-1.12-3.76.39-3.76,2.16l.06,30.21c0,3.22,5,3.23,5,0Z"/><path class="cls-3" d="M1357.87,1229a19.34,19.34,0,0,1-16.18.21,402.35,402.35,0,0,1,38.89-60.64c-33.76,12.78-70.08,35.15-95,61.28l10.16,130.69L1367,1344s-33.68,4.54-31.17-7.8a44.12,44.12,0,0,1,11.14-20.72,141.43,141.43,0,0,1,58.22-13,83.09,83.09,0,0,0-45.15-19.24c20.8-13.38,43.08-24.31,65.29-35.2-15.86-2.89-32.14-2-48.24-1a151.71,151.71,0,0,1,15.44-39.28,63.23,63.23,0,0,0-41.84,34.75"/><path class="cls-2" d="M1356.61,1226.85a16.84,16.84,0,0,1-13.66.21l.89,3.42a406.32,406.32,0,0,1,29.23-47.66c3-4.21,6.1-8.38,9.27-12.47a2.61,2.61,0,0,0,.4-3,2.53,2.53,0,0,0-2.83-1.15,281.55,281.55,0,0,0-39.53,18.71,275.3,275.3,0,0,0-37,25.28c-5.6,4.56-11,9.36-16.13,14.46l-1.71,1.73a13.82,13.82,0,0,0-2.08,2.25,2.72,2.72,0,0,0-.33,1.34c0,.24,0,.5.06.74l.79,10.19,1.47,18.89,1.87,24,2,25.63,1.84,23.64,1.4,18.09c.24,3,.45,6,.7,9l0,.41a2.54,2.54,0,0,0,3.17,2.41l24.12-5.61,38.39-8.93,8.73-2a2.54,2.54,0,0,0,1.75-3.08,2.57,2.57,0,0,0-3.08-1.74c1.46-.2,0,0-.31,0l-2.48.25c-2.56.23-5.14.38-7.71.43a63.5,63.5,0,0,1-9.35-.42c.57.08-.34,0-.5-.08-.35,0-.69-.11-1-.18-.69-.13-1.37-.29-2-.47s-1.19-.37-1.78-.59.49.24,0,0l-.31-.15c-.3-.14-.59-.3-.88-.47l-.65-.44c.62.43,0-.06-.19-.19s-.32-.35-.49-.53c.52.58,0-.12-.15-.31-.32-.5,0,.44-.07-.17,0-.23-.1-.47-.16-.7.15.63,0,.11,0-.24,0-.1,0-.21,0-.31,0-.47-.13.53,0-.08a41.69,41.69,0,0,1,5.7-13.62,38.62,38.62,0,0,1,2.86-3.91,13.47,13.47,0,0,1,1.81-2c.05,0,.08-.1.14-.13-.74.46,1-.19.34,0a5.66,5.66,0,0,0,.83-.37c1.48-.66,3-1.3,4.48-1.9q4.47-1.79,9.06-3.27a139.61,139.61,0,0,1,41.75-6.76c2,0,3.49-2.82,1.77-4.27a86.51,86.51,0,0,0-46.92-20l1.26,4.66c16.22-10.42,33.32-19.36,50.56-27.94q7.35-3.66,14.73-7.26c1.86-.91,1.49-4.19-.59-4.57-16.18-2.91-32.6-2.07-48.91-1.13l2.42,3.17a150.51,150.51,0,0,1,15.18-38.69,2.53,2.53,0,0,0-2.82-3.67A66.16,66.16,0,0,0,1355,1230.2a60.61,60.61,0,0,0-6.45,11,2.58,2.58,0,0,0,.89,3.42,2.51,2.51,0,0,0,3.42-.9,61.41,61.41,0,0,1,29.15-29.6,58.36,58.36,0,0,1,11.2-4l-2.83-3.67a155.52,155.52,0,0,0-15.69,39.88,2.52,2.52,0,0,0,2.41,3.16c15.83-.91,31.88-1.87,47.58,1l-.6-4.57c-17.3,8.49-34.62,17-51.29,26.66q-7.1,4.11-14,8.54a2.53,2.53,0,0,0,1.27,4.66,80.6,80.6,0,0,1,43.39,18.51l1.76-4.27a144.23,144.23,0,0,0-40,6q-4.85,1.44-9.57,3.22a92.54,92.54,0,0,0-9.48,4,6.64,6.64,0,0,0-2,1.75c-1.14,1.28-2.2,2.64-3.21,4a45.43,45.43,0,0,0-6.8,13.84c-1,3.45-1.52,6.91,1.09,9.77,1.92,2.09,4.83,3.13,7.52,3.74a49.52,49.52,0,0,0,10,1,99.48,99.48,0,0,0,14.94-.89l-1.33-4.82-24.12,5.61-38.39,8.93-8.73,2,3.16,2.41-1-13.06-2.43-31.21-2.93-37.72-2.54-32.61-.83-10.73c-.13-1.68-.11-3.47-.4-5.13,0-.07,0-.15,0-.23l-.73,1.77a223.5,223.5,0,0,1,33-28.14,283.91,283.91,0,0,1,38.62-22.83q10.89-5.34,22.22-9.67l-2.43-4.18a408.84,408.84,0,0,0-31.51,47q-4,7-7.77,14.2c-.57,1.09-.39,2.86.89,3.42a22.32,22.32,0,0,0,18.71-.21,2.51,2.51,0,0,0,.9-3.42,2.55,2.55,0,0,0-3.42-.9Z"/><path class="cls-3" d="M1278.49,1153.42a45.7,45.7,0,0,1,16.34-20.27,196.82,196.82,0,0,1,1.32,24,86.71,86.71,0,0,1,13.51-31.37,78.87,78.87,0,0,1,11.24,43.33"/><path class="cls-2" d="M1280.9,1154.09a43.14,43.14,0,0,1,15.19-18.78l-3.76-2.16a201,201,0,0,1,1.32,24c0,2.76,4.31,3.48,4.91.67a85.69,85.69,0,0,1,13.26-30.78h-4.31a77,77,0,0,1,10.89,42.07c-.11,3.22,4.89,3.22,5,0a81.83,81.83,0,0,0-11.58-44.59,2.52,2.52,0,0,0-4.31,0,89.35,89.35,0,0,0-13.77,32l4.91.66a201,201,0,0,0-1.32-24c-.19-1.7-2-3.36-3.76-2.16a49.25,49.25,0,0,0-17.5,21.77,2.51,2.51,0,0,0,1.75,3.07,2.56,2.56,0,0,0,3.08-1.74Z"/></g><g id="headstone"><path class="cls-4" d="M1295.75,1317.25s-58.39,86.11-174.27,106.17-305.49,23-305.49,23q.06-80.25.1-160.49.1-136.8.18-273.6c0-37.63.87-78,22.65-108.66,15.19-21.4,45.34-28,68.07-41.09,52.56-30.34,93.32-30,172.75-45.27,19.53-3.75,87.87-10,120.22,2.72q4.08,4.67,7.75,9.61c31.1,41.8,41.35,97.28,49.2,149.71Q1282.08,1147.6,1295.75,1317.25Z"/><path class="cls-4" d="M1292.56,1308.58q-13.65-169.53-38.84-337.85c-9-59.92-21.08-123.84-63.87-166.74-47.4-47.51-105.34-84.23-202.82-80.75-67.07,2.39-171,32-223.66,73.59-25,19.7-50.2,40.73-64.8,69-17.94,34.69-17.58,75.61-16.8,114.65,1.92,96.23,3.84,242.45,5.76,338.68L816,1446.47"/><path class="cls-2" d="M1295.06,1308.58q-9.72-120.52-25.25-240.48c-5-38.19-10.08-76.39-16.22-114.4-5.11-31.61-11.59-63.36-24-93A194.36,194.36,0,0,0,1207,820.2c-8.36-11.3-18.27-21.2-28.63-30.67-18.85-17.23-39.66-32.43-62.61-43.76C1063,719.72,1002.5,716,945,725a520,520,0,0,0-87.94,21.9c-27.31,9.35-54.34,20.8-78.75,36.34-12.25,7.79-23.56,17-34.63,26.36-12.77,10.8-24.93,22.4-35.06,35.75-21.38,28.17-28.21,62.34-29.39,97-1.06,31.13.51,62.42,1,93.55q.84,48.58,1.59,97.15.78,49.64,1.59,99.26.38,23.23.79,46.46.19,10.88.4,21.75c.06,3.31.13,6.62.19,9.93,0,2.77-.79,7.47.51,9.94.94,1.77,3.25,3.34,4.64,4.72l11.77,11.66,37.5,37.17L810,1444l4.24,4.21c2.29,2.27,5.83-1.26,3.54-3.53l-43.55-43.17-69.07-68.47-15.84-15.7.73,1.77q-1.41-70.94-2.44-141.87-1.19-74.74-2.44-149.5C684.74,1004.4,684,981,684,957.64c0-27.11,1.8-54.93,12-80.35,10-24.83,28.41-44.56,48.42-61.8,16.85-14.52,34.37-27.7,54-38.2,40.83-21.81,86.23-35.92,131.58-44.64,45.18-8.68,92.23-10.53,137.18.67,39.82,9.92,75.24,30.61,105.61,57.94,16.88,15.19,31.72,31.64,42.69,51.67,11.72,21.4,19.25,44.84,24.82,68.51,5.91,25.15,9.63,50.74,13.36,76.28q6.77,46.18,12.64,92.48,11.64,91.47,19.87,183.33,2,22.52,3.83,45c.26,3.18,5.26,3.21,5,0Z"/><path class="cls-2" d="M815.3,1434.52l.15-232.19.08-115.47,0-57.11c0-17.51-.27-35.06.48-52.56.67-15.72,2.31-31.51,6.66-46.68,4.13-14.4,10.81-29.46,22-39.76,10.2-9.37,23.32-15,35.84-20.51,6.63-2.93,13.29-5.83,19.7-9.23,5.85-3.1,11.52-6.49,17.46-9.43,22-10.94,45.57-17.49,69.62-22.12,29.15-5.62,58.56-10,87.77-15.25,18.06-3.24,37.08-3.25,55.35-2.92a317.24,317.24,0,0,1,35.53,2.44c9.88,1.3,20,3.15,29.25,6.85a38.86,38.86,0,0,1,9.79,5.36c2.49,2,6-1.54,3.53-3.54-6.94-5.5-15.65-8.34-24.16-10.39a207.57,207.57,0,0,0-33.31-4.78,383,383,0,0,0-65.75.64c-11,1.09-21.85,3.49-32.75,5.41-15.21,2.67-30.46,5.07-45.68,7.63-24.93,4.19-49.88,9-73.49,18.25-12.15,4.79-23.43,10.93-34.9,17.12-12.82,6.9-26.63,11.73-39.46,18.62-12.62,6.79-22.8,15.57-30.11,28-7.92,13.47-12.48,28.65-15,44-2.63,16.13-3.22,32.5-3.35,48.82-.14,18.79-.05,37.58-.06,56.37l-.08,118L810.32,1406l0,28.56c0,3.21,5,3.22,5,0Z"/></g><g id="text"><text class="cls-5" transform="matrix(0.97, -0.15, -0.02, 1, 848.23, 1006.07)">THOMAS CONST-<tspan x="6.63" y="52.8">ANTINE MOORE</tspan></text><text class="cls-5" transform="matrix(0.97, -0.15, -0.02, 1, 867.98, 1205.67)">YA MISSED HIM</text><text class="cls-6" transform="matrix(0.97, -0.15, -0.02, 1, 964.4, 1112.72)">1991 - 3042</text></g><g id="fg-weeds"><path class="cls-3" d="M853,1459.92a96.37,96.37,0,0,1,24.29-47.42l-.72-2.13a330.58,330.58,0,0,0,.74,40.43c19.64-8.32,16.45-20.91,30.87-36.63,5.11,20.95-6.59,44.74-26.31,53.48a102.05,102.05,0,0,1,71-5.45,81.27,81.27,0,0,0-51.68,44.19c-.89,2-1.72,4.13-1.3,6.25.68,3.43,4.25,5.39,7.52,6.6a62.92,62.92,0,0,0,43,.14c-16.32,19.51-47.35,24.7-69.13,11.54-2.3-1.39-4.74-3-7.41-2.74-2.18.22-4,1.69-5.66,3.16A80.65,80.65,0,0,0,843.59,1573c-2.72-8.37-6.19-17.62-14.16-21.32-8.55-4-19.1.5-25,7.81s-8.36,16.79-10.62,25.94c-11.89-12.54-13.93-33.3-4.71-47.92-27.5-16.18-44.57-48.61-42.33-80.44l-.42.7a110,110,0,0,0,47.81,40.65c-15.25-33-12.9-71.07-10.25-107.32l-.13,1.21c9.47,29.83,37.44,52.89,68.52,56.51"/><path class="cls-2" d="M855.42,1460.58a94.54,94.54,0,0,1,23.64-46.32,2.49,2.49,0,0,0,.65-2.43l-.72-2.13a2.51,2.51,0,0,0-4.91.67,334.63,334.63,0,0,0,.74,40.43,2.54,2.54,0,0,0,3.76,2.16,36.24,36.24,0,0,0,15.56-12.08c3.39-4.74,5.63-10.19,8.6-15.18a60.3,60.3,0,0,1,7.21-9.76l-4.18-1.11c3.73,15.56-2.22,32.55-13.88,43.27a42,42,0,0,1-11.27,7.4l2.52,4.31a100.1,100.1,0,0,1,53.94-8.33,97.08,97.08,0,0,1,15.1,3.13v-4.82A84.21,84.21,0,0,0,903,1497.48c-1.06,1.77-2,3.59-3,5.44a25.71,25.71,0,0,0-2.58,6.51c-.92,4.93,1.94,8.75,6.19,10.91a50,50,0,0,0,13.84,4.22,65.84,65.84,0,0,0,33.51-2.77l-2.43-4.18c-10.88,12.91-28,19.21-44.72,17.91a50.78,50.78,0,0,1-12.13-2.48c-4.14-1.37-7.69-3.51-11.48-5.59-2.54-1.4-5.43-2.32-8.31-1.43-2.53.78-4.56,2.6-6.47,4.37a83.65,83.65,0,0,0-24.3,42H846c-3.26-10-8.17-22.32-20-24.32a23.72,23.72,0,0,0-16.31,3.55,32.48,32.48,0,0,0-11.54,12.89c-3.32,6.37-5.12,13.38-6.83,20.32l4.18-1.11c-8.61-9.17-11.68-22.88-8.56-35a35,35,0,0,1,4.24-9.9,2.53,2.53,0,0,0-.9-3.42c-21-12.41-35.56-34.27-40-58.14a81.41,81.41,0,0,1-1.12-20.14c.18-2.57-3.43-3.27-4.65-1.26l-.43.7a2.5,2.5,0,0,0,0,2.52,113.34,113.34,0,0,0,36.11,35,109.79,109.79,0,0,0,12.6,6.55,2.52,2.52,0,0,0,3.42-3.42c-11.77-25.59-12.7-54.43-11.42-82.09.37-8,.93-16,1.51-24a2.53,2.53,0,0,0-2.5-2.5,2.57,2.57,0,0,0-2.5,2.5c-.29,2.67,1.12,5.39,2.13,7.82a84.26,84.26,0,0,0,4.26,8.89,86.32,86.32,0,0,0,11.46,15.87,88.43,88.43,0,0,0,31.8,22.2,81.24,81.24,0,0,0,21.24,5.44,2.51,2.51,0,0,0,2.5-2.5,2.55,2.55,0,0,0-2.5-2.5,78.62,78.62,0,0,1-33.68-12.6,82.45,82.45,0,0,1-25-25.78,79.8,79.8,0,0,1-4.77-9.12c-.67-1.51-1.27-3-1.83-4.6l-.42-1.2c-.06-.17-.11-.34-.17-.52s-.23-.74-.18-.38,0-.28.06-.41l.06-.61h-5c-2.08,28.46-4.06,57.66,2.68,85.69a124.44,124.44,0,0,0,7.91,22.89l3.42-3.42a108.74,108.74,0,0,1-38.68-28.73,105.21,105.21,0,0,1-8.23-11v2.52l.42-.7-4.66-1.26a87.52,87.52,0,0,0,5.84,37.41,92.76,92.76,0,0,0,20.63,31.89,86.09,86.09,0,0,0,17.1,13.3l-.9-3.42c-7.63,12.23-7.92,28.14-1.74,41a39.71,39.71,0,0,0,6.85,9.93,2.51,2.51,0,0,0,4.17-1.1c2.52-10.19,5.25-22,14-28.77a20.47,20.47,0,0,1,13.15-4.62,15,15,0,0,1,11.11,6.18c3.33,4.31,5.13,9.65,6.79,14.77.73,2.23,4.24,2.52,4.83,0a78.84,78.84,0,0,1,11.77-26.76,77.27,77.27,0,0,1,9.33-11.18c1.67-1.65,3.48-3.71,5.64-4.7s4.24.25,6.11,1.36a56.76,56.76,0,0,0,24.5,8.07,59.7,59.7,0,0,0,25.17-3.28,54.93,54.93,0,0,0,23.59-16.06,2.56,2.56,0,0,0,.39-3,2.51,2.51,0,0,0-2.82-1.15,61.42,61.42,0,0,1-27.08,3.29,58.79,58.79,0,0,1-13.29-3c-2.67-.92-7.11-2.46-7.06-5.92,0-1.94,1.12-3.87,2-5.58s1.76-3.45,2.73-5.13a75.74,75.74,0,0,1,6.42-9.37,80.28,80.28,0,0,1,16.76-15.64,78,78,0,0,1,23.4-11,2.52,2.52,0,0,0,0-4.82,103.9,103.9,0,0,0-72.89,5.71,2.52,2.52,0,0,0-.9,3.42,2.56,2.56,0,0,0,3.42.89c16.23-7.27,27-24.06,28.57-41.56a46.35,46.35,0,0,0-1.11-14.75,2.52,2.52,0,0,0-4.18-1.1,79.15,79.15,0,0,0-11.43,17c-2.59,5-5,9.65-9.18,13.34a35.59,35.59,0,0,1-9.75,5.87l3.76,2.15a334.63,334.63,0,0,1-.74-40.43l-4.92.66.73,2.13.64-2.43a99.93,99.93,0,0,0-21.83,36.68,98.59,98.59,0,0,0-3.1,11.84,2.56,2.56,0,0,0,1.74,3.08,2.54,2.54,0,0,0,3.08-1.75Z"/><path class="cls-3" d="M1220.05,1390.41a337.1,337.1,0,0,1,20-108.47,284,284,0,0,0-3.31,79.34l40.65-35.09c12.95-11.18,27-22.85,43.95-25a189.47,189.47,0,0,0-21.93,39c-1.37,3.32-2.66,7.09-1.26,10.4,2.87,6.82,12.32,2.49,19.71,2.24,30.11-1,51.4-15.77,66.26-44.32l17.54,32.5"/><path class="cls-2" d="M1222.55,1390.41a334.7,334.7,0,0,1,12.49-84.69q3.29-11.68,7.42-23.12l-4.82-1.32a288,288,0,0,0-4.6,62.31q.33,8.87,1.2,17.69a2.54,2.54,0,0,0,4.27,1.77l33.68-29.08c9.7-8.37,19.25-17.3,30.47-23.63a52.17,52.17,0,0,1,18.68-6.63l-2.16-3.76a190,190,0,0,0-20.14,34.88c-2.41,5.44-6.26,12.71-2.34,18.39,3.1,4.49,8.78,4,13.51,3.23,2.33-.37,4.65-.87,7-1,2.58-.16,5.16-.25,7.73-.54a80.7,80.7,0,0,0,14.93-3,70.44,70.44,0,0,0,25.08-14c9-7.73,15.87-17.59,21.32-28H1382l17.54,32.5c1.53,2.84,5.85.32,4.32-2.52l-17.54-32.5a2.52,2.52,0,0,0-4.32,0c-8.63,16.51-21.27,31.29-39,38.16a71.13,71.13,0,0,1-13.26,3.7c-2.27.41-4.55.71-6.85.92s-4.86.2-7.27.48-4.91.8-7.37,1.15a26.41,26.41,0,0,1-3,.25,7.27,7.27,0,0,1-2.56-.26,3.06,3.06,0,0,1-1.62-1,5.34,5.34,0,0,1-1-2.51c-.32-2.85,1.12-5.81,2.2-8.36a189.3,189.3,0,0,1,21.23-37.38c1-1.43-.34-4-2.16-3.76-13,1.69-24.25,8.41-34.45,16.35-5.3,4.12-10.33,8.56-15.41,12.94l-16.94,14.62-19.57,16.9,4.27,1.76a284.81,284.81,0,0,1,.62-61.57c.68-5.73,1.56-11.43,2.6-17.11a2.5,2.5,0,0,0-4.82-1.32,340.66,340.66,0,0,0-18.76,84.66q-1.11,12.21-1.33,24.47c-.06,3.22,4.94,3.22,5,0Z"/></g></svg>